<mxfile host="app.diagrams.net" modified="2023-09-19T10:59:12.566Z" agent="Mozilla/5.0 (Windows NT 10.0; Win64; x64) AppleWebKit/537.36 (KHTML, like Gecko) Chrome/109.0.0.0 Safari/537.36" version="21.7.5" etag="BwsMMab_wbxFm8mV8gKM" type="github">
  <diagram name="Page-1" id="Zih3orhiC4KFxTedO2ip">
    <mxGraphModel>
      <root>
        <mxCell id="0" />
        <mxCell id="1" parent="0" />
      </root>
    </mxGraphModel>
  </diagram>
</mxfile>
